<svg width="62" height="62" viewBox="0 0 62 62" fill="none" xmlns="http://www.w3.org/2000/svg">
<path fill-rule="evenodd" clip-rule="evenodd" d="M28.1861 18.4868C28.9596 18.1654 29.7886 18 30.6259 18C32.3168 18 33.9384 18.6737 35.1341 19.873C36.3297 21.0722 37.0014 22.6987 37.0014 24.3947C37.0014 26.0907 36.3297 27.7173 35.1341 28.9165C33.9384 30.1157 32.3168 30.7895 30.6259 30.7895C29.7886 30.7895 28.9596 30.6241 28.1861 30.3027C27.4126 29.9813 26.7097 29.5103 26.1177 28.9165C25.5257 28.3227 25.0561 27.6177 24.7357 26.8419C24.4153 26.0661 24.2504 25.2345 24.2504 24.3947C24.2504 23.555 24.4153 22.7234 24.7357 21.9476C25.0561 21.1717 25.5257 20.4668 26.1177 19.873C26.7097 19.2792 27.4126 18.8081 28.1861 18.4868ZM26.6991 22.7633C26.4855 23.2805 26.3755 23.8349 26.3755 24.3947C26.3755 25.5254 26.8233 26.6097 27.6204 27.4092C28.4175 28.2087 29.4986 28.6579 30.6259 28.6579C31.7531 28.6579 32.8342 28.2087 33.6313 27.4092C34.4284 26.6097 34.8762 25.5254 34.8762 24.3947C34.8762 23.8349 34.7663 23.2805 34.5527 22.7633C34.3391 22.2461 34.026 21.7761 33.6313 21.3802C33.2367 20.9844 32.7681 20.6703 32.2524 20.4561C31.7367 20.2418 31.1841 20.1316 30.6259 20.1316C30.0677 20.1316 29.515 20.2418 28.9993 20.4561C28.4837 20.6703 28.0151 20.9844 27.6204 21.3802C27.2257 21.7761 26.9127 22.2461 26.6991 22.7633Z" fill="white"/>
<path fill-rule="evenodd" clip-rule="evenodd" d="M20.9337 34.5681C20.3359 35.1677 20 35.981 20 36.8289V37.5835C20.0011 37.6105 20.0025 37.6375 20.0043 37.6645C20.0296 38.0466 20.0888 38.4256 20.1813 38.7971C20.4152 39.7302 20.8323 40.607 21.4083 41.3763C22.8449 43.299 25.585 45 30.6259 45C35.6668 45 38.4069 43.299 39.8435 41.3763C40.42 40.6071 40.8376 39.7303 41.0718 38.7971C41.1437 38.5111 41.1957 38.2206 41.2277 37.9274C41.2419 37.8133 41.25 37.6985 41.2518 37.5835V36.8289C41.2518 35.981 40.9159 35.1677 40.3181 34.5681C39.7203 33.9684 38.9095 33.6316 38.064 33.6316H23.1878C22.3423 33.6316 21.5315 33.9684 20.9337 34.5681ZM22.1252 37.5579V36.8289C22.1252 36.5463 22.2371 36.2752 22.4364 36.0753C22.6357 35.8754 22.9059 35.7632 23.1878 35.7632H38.064C38.3458 35.7632 38.6161 35.8754 38.8154 36.0753C39.0146 36.2752 39.1266 36.5463 39.1266 36.8289V37.5324L39.1252 37.5579C39.1064 37.8015 39.0671 38.043 39.0076 38.2798C38.8857 38.7729 38.6392 39.4352 38.1433 40.0974C37.1898 41.3721 35.1483 42.8684 30.6259 42.8684C26.1035 42.8684 24.0619 41.3721 23.107 40.0974C22.7017 39.5549 22.408 38.9371 22.2428 38.2798C22.1804 38.034 22.1521 37.8336 22.1379 37.7001L22.1252 37.5579Z" fill="white"/>
</svg>
