<svg width="62" height="62" viewBox="0 0 62 62" fill="none" xmlns="http://www.w3.org/2000/svg">
<path d="M29.426 37.9949C30.5513 37.9949 31.6655 37.7733 32.7052 37.3426C33.7448 36.912 34.6894 36.2808 35.4851 35.4851C36.2808 34.6894 36.912 33.7448 37.3427 32.7052C37.7733 31.6655 37.9949 30.5513 37.9949 29.426C37.9949 28.3007 37.7733 27.1864 37.3427 26.1468C36.912 25.1071 36.2808 24.1625 35.4851 23.3668C34.6894 22.5711 33.7448 21.9399 32.7052 21.5093C31.6655 21.0787 30.5513 20.857 29.426 20.857C27.1534 20.857 24.9738 21.7598 23.3668 23.3668C21.7598 24.9738 20.857 27.1533 20.857 29.426C20.857 31.6986 21.7598 33.8781 23.3668 35.4851C24.9738 37.0921 27.1534 37.9949 29.426 37.9949ZM38.4519 36.4325L43.5647 41.5453C43.701 41.6771 43.8097 41.8348 43.8845 42.0091C43.9592 42.1834 43.9984 42.3708 44 42.5605C44.0015 42.7501 43.9652 42.9381 43.8933 43.1136C43.8213 43.289 43.7152 43.4484 43.581 43.5824C43.4468 43.7164 43.2873 43.8223 43.1117 43.894C42.9361 43.9657 42.7481 44.0017 42.5584 43.9999C42.3688 43.9982 42.1814 43.9586 42.0072 43.8837C41.8331 43.8087 41.6755 43.6998 41.5439 43.5633L36.4311 38.4505C34.1353 40.2326 31.2466 41.0728 28.3531 40.8001C25.4596 40.5273 22.7788 39.1622 20.8564 36.9824C18.934 34.8027 17.9146 31.9723 18.0056 29.0674C18.0966 26.1625 19.2913 23.4015 21.3464 21.3464C23.4015 19.2913 26.1625 18.0966 29.0674 18.0056C31.9723 17.9146 34.8027 18.934 36.9824 20.8564C39.1622 22.7788 40.5274 25.4596 40.8001 28.3531C41.0728 31.2466 40.2326 34.1353 38.4505 36.4311L38.4519 36.4325Z" fill="white"/>
</svg>
